<?xml version="1.0" encoding="utf-8"?>
<!-- Generator: Adobe Illustrator 16.0.0, SVG Export Plug-In . SVG Version: 6.00 Build 0)  -->
<!DOCTYPE svg PUBLIC "-//W3C//DTD SVG 1.1//EN" "http://www.w3.org/Graphics/SVG/1.1/DTD/svg11.dtd">
<svg version="1.1" id="Layer_1" xmlns="http://www.w3.org/2000/svg" xmlns:xlink="http://www.w3.org/1999/xlink" x="0px" y="0px"
	 width="60px" height="60px" viewBox="0 0 60 60" enable-background="new 0 0 60 60" xml:space="preserve">
<path d="M8.529,32.309c0,0,6.593,6.31,10.447,13.849c3.856,7.541,4.556,12.097,4.556,12.097s10.529-19.605,12.631-20.75
	c0,0-1.343,4.649-7.536,13.685l-5.24,8.063c0,0-1.536-4.361-2.786-6.692c-1.251-2.329-5.323-8.892-6.106-10.039
	C13.712,41.373,8.178,32.895,8.529,32.309z M24.043,43.167c0.703,4.792,1.047,0.388,1.047,0.388s0.343-11.153,4.783-20.441
	C33.849,14.798,41.976,6.602,46.23,3.571c7.56-5.385-0.409-1.411-0.409-1.411c-8.319,4.533-15.088,12.873-18.083,19.39
	C23.594,30.575,23.338,38.373,24.043,43.167z"/>
</svg>
