<?xml version="1.0" encoding="utf-8"?>
<!-- Generator: Adobe Illustrator 15.0.0, SVG Export Plug-In . SVG Version: 6.00 Build 0)  -->
<!DOCTYPE svg PUBLIC "-//W3C//DTD SVG 1.1//EN" "http://www.w3.org/Graphics/SVG/1.1/DTD/svg11.dtd">
<svg version="1.1" id="Layer_1" xmlns="http://www.w3.org/2000/svg" xmlns:xlink="http://www.w3.org/1999/xlink" x="0px" y="0px"
	 width="64px" height="64px" viewBox="0 0 64 64" enable-background="new 0 0 64 64" xml:space="preserve">
<path class="front" fill="#FFFFFF" d="M57.967,4.125h-7.309v5.343c0,2.007-1.633,3.632-3.645,3.632c-2.014,0-3.645-1.625-3.645-3.632V4.125H21
	v5.343c0,2.007-1.631,3.632-3.643,3.632c-2.01,0-3.642-1.625-3.642-3.632V4.125H6.033C2.7,4.125,0,6.818,0,10.142v47.233
	c0,3.322,2.7,6.02,6.033,6.02h51.934c3.331,0,6.033-2.689,6.033-6.02V10.143C64,6.818,61.298,4.125,57.967,4.125z M59.428,58.547
	H4.857V17.042h54.57L59.428,58.547z M8.885,20.528v35.04h46.542v-35.04H8.885z M30.041,22.806v4.906
	c-0.178-0.014-0.356-0.029-0.54-0.029h-6.49c-0.313,0-0.62,0.027-0.922,0.07v-4.947H30.041z M22.089,33.532h7.952v8.446h-7.952
	V33.532z M10.927,22.806h7.954v6.271c-0.78,0.579-1.457,1.318-1.995,2.174h-5.959V22.806z M10.927,33.532h4.944
	c-0.227,0.798-0.35,1.646-0.35,2.523v3.278c0,0.924,0.14,1.813,0.388,2.645h-4.982V33.532z M10.927,52.703v-8.445h6.037
	c0.525,0.81,1.172,1.51,1.917,2.063v6.384L10.927,52.703z M22.089,52.703v-5.063c0.302,0.043,0.61,0.068,0.922,0.068h6.49
	l0.54-0.029v5.021L22.089,52.703z M41.202,52.703h-7.951v-6.127c0.905-0.587,1.687-1.379,2.3-2.318h5.651V52.703z M41.202,41.979
	h-4.597c0.248-0.832,0.388-1.719,0.388-2.645v-3.278c0-0.88-0.123-1.729-0.351-2.523h4.56V41.979z M41.202,31.252h-5.574
	c-0.625-0.992-1.437-1.822-2.378-2.437v-6.01h7.951v8.444L41.202,31.252z M52.363,52.703h-7.952v-8.445h7.952V52.703z
	 M52.363,41.979h-7.952v-8.446h7.952V41.979z M52.363,31.252h-7.952v-8.445h7.952V31.252z M19.902,9.15
	c0,1.397-1.139,2.535-2.545,2.535c-1.405,0-2.544-1.138-2.544-2.535V3.142c0-1.399,1.139-2.536,2.543-2.536
	c1.406,0,2.545,1.136,2.545,2.536L19.902,9.15z M49.561,9.15c0,1.397-1.142,2.535-2.545,2.535c-1.404,0-2.545-1.138-2.545-2.535
	V3.142c0-1.399,1.139-2.536,2.545-2.536c1.404,0,2.545,1.136,2.545,2.536V9.15z"/>
</svg>
