<?xml version="1.0" encoding="utf-8"?>
<!-- Generator: Adobe Illustrator 16.0.4, SVG Export Plug-In . SVG Version: 6.00 Build 0)  -->
<!DOCTYPE svg PUBLIC "-//W3C//DTD SVG 1.1//EN" "http://www.w3.org/Graphics/SVG/1.1/DTD/svg11.dtd">
<svg version="1.1" id="Layer_1" xmlns="http://www.w3.org/2000/svg" xmlns:xlink="http://www.w3.org/1999/xlink" x="0px" y="0px"
	 width="211.333px" height="70.666px" viewBox="0 0 211.333 70.666" enable-background="new 0 0 211.333 70.666"
	 xml:space="preserve">
<path d="M209.286,57.879c-1.648-9.236-10.227-4.619-10.227-4.619c-5.607-7.588-10.227,0.66-10.227,0.66
	c-7.586-4.949-9.236,3.959-9.236,3.959c-5.607-3.959-7.586,1.979-7.586,1.979c-0.662-5.607-6.6-3.299-6.6-3.299
	c-1.648-6.928-8.246-2.309-8.246-2.309c-10.887-5.279-12.865,6.928-12.865,6.928c-1.98-5.609-7.588-2.309-7.588-2.309
	c-6.598-0.33-7.588,3.627-7.588,3.627c-8.246-4.947-10.885,2.641-10.885,2.641c0-7.588-7.588-5.279-7.588-5.279
	c-0.66-6.598-6.598-4.617-6.598-4.617c-5.278-1.98-5.608,3.957-5.608,3.957c-8.576-5.277-13.524,1.65-13.524,1.65
	c-6.928-2.969-8.577,4.619-8.577,4.619c-2.97-2.641-6.598,1.318-6.598,1.318c1.319-6.268-4.619-6.598-4.619-6.598
	c0.33-3.959-5.938-3.299-5.938-3.299c-2.639-4.619-8.907-1.32-8.907-1.32c-4.618-4.287-7.917,0-7.917,0
	c-3.299-5.938-8.247-1.648-8.247-1.648c-2.969-3.629-7.258-0.33-7.258-0.33c0-4.619-4.618-3.299-4.618-3.299
	c-5.278-7.918-11.546,1.32-11.546,1.32c-3.959-4.289-8.247,0.33-8.247,0.33 M13.884,44.793l0.221-10.775l-4.179,0.439v6.816
	 M23.122,48.752V35.117l-9.017-1.1 M38.956,50.07V30.498L25.76,31.377v17.594 M42.695,52.051V32.918l-3.739-2.42 M41.595,31.377
	v-3.738l-1.54-0.879L28.62,27.199v3.078 M55.01,51.172l-0.22-20.234h-9.236l-1.979,0.881 M45.554,30.938v16.936 M48.632,30.938
	v20.014 M48.853,34.457h5.607 M48.853,39.074h5.607 M48.853,43.693h5.607 M59.368,21.357h3.299 M60.027,24.215h3.079 M58.928,28.174
	h4.178 M57.388,30.594h9.896 M57.608,33.453h11.656 M57.608,36.311h12.096 M56.508,38.951h12.096 M99.655,52.93v-4.178H86.899
	v-2.859h-7.697v4.398h-2.858 M86.899,48.752v8.137 M80.742,34.676h-3.959v4.398h-1.1 M85.799,26.318l-4.618,2.641v15.834
	 M86.24,20.602v14.734 M88.439,21.262v6.156v11.877 M94.376,48.092V27.418h-5.938 M87.779,35.775H84.26v2.42h-0.989v3.299h-0.99
	v3.85 M108.122,51.83v-7.916H96.795v4.617 M103.558,44.023v4.453 M111.312,53.426v-17.65l-11.876,0.826v6.268 M137.702,50.127
	h-13.195l-5.279,3.133v5.279 M151.556,46.498h-13.359v9.73 M129.29,49.631v-6.598h-7.752v7.588 M143.146,33.797h-2.641v-2.309
	h-7.752v2.309h-1.979v15.834 M165.247,26.539V10.375L159.474,7.9L143.64,8.725v36.453 M159.97,44.023V7.9 M161.618,8.396V4.271
	l-1.648-0.824h-13.361v4.619 M179.597,52.93V29.508l-4.287-2.309h-12.043v25.07 M174.813,51.775V27.199 M194.276,43.363v-9.236
	h-14.68 M200.38,51.611v-7.258h-15.67v7.092 M190.813,43.693v-8.742 M196.917,47.486v-2.639 M167.062,34.621h4.619 M166.731,36.602
	h4.783 M168.052,32.312v7.918 M170.36,31.982V39.9 M146.114,12.684h10.227 M146.608,15.488h7.092 M147.929,17.963h7.586
	 M148.423,10.705v8.742 M151.556,11.859v10.062 M76.248,34.539V18.375L70.474,15.9l-15.835,0.824v36.453 M70.969,52.023V15.9"/>
</svg>
