<?xml version="1.0" encoding="utf-8"?>
<!-- Generator: Adobe Illustrator 16.0.4, SVG Export Plug-In . SVG Version: 6.00 Build 0)  -->
<!DOCTYPE svg PUBLIC "-//W3C//DTD SVG 1.1//EN" "http://www.w3.org/Graphics/SVG/1.1/DTD/svg11.dtd">
<svg version="1.1" id="Layer_1" xmlns="http://www.w3.org/2000/svg" xmlns:xlink="http://www.w3.org/1999/xlink" x="0px" y="0px"
	 width="19.904px" height="19.903px" viewBox="0 0 19.904 19.903" enable-background="new 0 0 19.904 19.903" xml:space="preserve">
<path d="M13.352,9.962l6.469-6.469c0.125-0.123,0.109-0.261-0.039-0.409l-2.975-2.972
	c-0.035-0.037-0.112-0.053-0.229-0.049C16.457,0.072,16.373,0.1,16.326,0.15L9.934,6.541L3.465,0.076
	c-0.11-0.112-0.26-0.101-0.445,0.037L0.083,3.085C0.022,3.122-0.006,3.2,0.001,3.318c0.004,0.117,0.047,0.202,0.121,0.249
	l6.352,6.396l-6.352,6.353c-0.074,0.076-0.117,0.168-0.121,0.279c-0.008,0.112,0.021,0.194,0.082,0.24l2.937,2.939
	c0.172,0.171,0.349,0.171,0.52,0l6.395-6.394l6.355,6.394c0.209,0.159,0.383,0.171,0.518,0.035l2.936-2.935
	c0.176-0.176,0.176-0.347,0-0.522L13.352,9.962z"/>
</svg>
