<?xml version="1.0" encoding="utf-8"?>
<!-- Generator: Adobe Illustrator 15.0.0, SVG Export Plug-In . SVG Version: 6.00 Build 0)  -->
<!DOCTYPE svg PUBLIC "-//W3C//DTD SVG 1.1//EN" "http://www.w3.org/Graphics/SVG/1.1/DTD/svg11.dtd">
<svg version="1.1" id="Layer_1" xmlns="http://www.w3.org/2000/svg" xmlns:xlink="http://www.w3.org/1999/xlink" x="0px" y="0px"
	 width="64px" height="64px" viewBox="0 0 64 64" enable-background="new 0 0 64 64" xml:space="preserve">
<path d="M31.132,44.662c-0.211,0.479-0.158,0.798,0.213,0.798c0.742,0,3.663-2.069,4.989-3.345
	c0.639,0,1.168,0.583,1.01,1.271c-2.07,2.762-6.795,6.317-11.149,6.317c-1.379,0-2.438-1.487-2.438-2.124
	c0-0.583,0.211-1.223,0.643-2.283l5.52-13.22c0.16-0.424,0.16-0.742-0.107-0.742c-0.896,0-3.875,2.229-4.725,3.026
	c-0.635-0.105-1.063-0.797-0.848-1.273c2.865-3.504,7.854-6.104,10.67-6.104c1.168,0,2.439,1.168,2.439,2.336
	c0,0.53-0.369,1.539-0.689,2.337L31.132,44.662L31.132,44.662z M37.186,15.359c1.806,0,2.978,1.114,2.978,3.132
	c0,2.336-1.599,4.299-4.035,4.299c-1.963,0-3.133-1.326-3.133-3.023C32.99,17.429,34.744,15.359,37.186,15.359z M52.742,64.134
	H40.191v-1.552c0-3.104-0.935-6.665-8.19-6.665s-8.188,3.563-8.188,6.665v1.552H11.257V-0.134h12.557v1.552
	c0,3.104,0.931,6.665,8.188,6.665c7.26,0,8.189-3.562,8.189-6.665v-1.552h12.552L52.742,64.134L52.742,64.134z M43.211,61.029h6.43
	V2.97h-6.43c-0.459,4.05-2.941,8.218-11.209,8.218c-8.268,0-10.748-4.168-11.207-8.218h-6.432v58.062h6.432
	c0.459-4.05,2.939-8.216,11.207-8.216C40.27,52.816,42.752,56.98,43.211,61.029z"/>
</svg>
