<?xml version="1.0" encoding="utf-8"?>
<!-- Generator: Adobe Illustrator 15.0.0, SVG Export Plug-In . SVG Version: 6.00 Build 0)  -->
<!DOCTYPE svg PUBLIC "-//W3C//DTD SVG 1.1//EN" "http://www.w3.org/Graphics/SVG/1.1/DTD/svg11.dtd">
<svg version="1.1" id="Layer_1" xmlns="http://www.w3.org/2000/svg" xmlns:xlink="http://www.w3.org/1999/xlink" x="0px" y="0px"
	 width="64px" height="64px" viewBox="0 0 64 64" enable-background="new 0 0 64 64" xml:space="preserve">
<path d="M30.532,53.492c-0.374,0.848-0.28,1.414,0.378,1.414c1.314,0,6.488-3.668,8.838-5.928
	c1.131,0,2.068,1.032,1.789,2.252C37.869,56.125,29.5,62.422,21.786,62.422c-2.443,0-4.319-2.635-4.319-3.764
	c0-1.031,0.374-2.168,1.14-4.043l9.779-23.421c0.284-0.752,0.284-1.315-0.189-1.315c-1.587,0-6.865,3.949-8.371,5.359
	c-1.125-0.184-1.884-1.41-1.502-2.254c5.075-6.208,13.914-10.813,18.904-10.813c2.067,0,4.319,2.069,4.319,4.138
	c0,0.939-0.653,2.727-1.221,4.141L30.532,53.492L30.532,53.492z M41.258,1.578c3.199,0,5.275,1.974,5.275,5.549
	c0,4.138-2.834,7.616-7.148,7.616c-3.477,0-5.551-2.35-5.551-5.356C33.824,5.246,36.932,1.578,41.258,1.578z"/>
</svg>
