<?xml version="1.0" encoding="utf-8"?>
<!-- Generator: Adobe Illustrator 15.0.0, SVG Export Plug-In . SVG Version: 6.00 Build 0)  -->
<!DOCTYPE svg PUBLIC "-//W3C//DTD SVG 1.1//EN" "http://www.w3.org/Graphics/SVG/1.1/DTD/svg11.dtd">
<svg version="1.1" id="Layer_1" xmlns="http://www.w3.org/2000/svg" xmlns:xlink="http://www.w3.org/1999/xlink" x="0px" y="0px"
	 width="64px" height="64px" viewBox="0 0 64 64" enable-background="new 0 0 64 64" xml:space="preserve">
<path class="back" fill="#003F87" d="M32.002,0C14.355,0,0,14.355,0,31.999C0,41.436,4.107,49.93,10.628,55.79C16.296,60.893,23.793,64,32.002,64
	c8.87,0,16.905-3.627,22.704-9.477C60.447,48.734,64,40.773,64,31.999C64,14.355,49.646,0,32.002,0L32.002,0z"/>
<path class="front" fill="#FFFFFF" d="M22.953,45.752c0,0.857-0.855,1.555-1.906,1.555h-6.613c-1.049,0-1.9-0.695-1.9-1.555v-5.414
	c0-0.855,0.854-1.559,1.9-1.559h6.613c1.051,0,1.906,0.697,1.906,1.559V45.752z M22.953,34.709c0,0.859-0.855,1.557-1.906,1.557
	h-6.613c-1.049,0-1.9-0.693-1.9-1.557v-5.412c0-0.857,0.854-1.562,1.9-1.562h6.613c1.051,0,1.906,0.7,1.906,1.562V34.709z
	 M22.953,23.667c0,0.856-0.855,1.559-1.906,1.559h-6.613c-1.049,0-1.9-0.697-1.9-1.559v-5.415c0-0.858,0.854-1.559,1.9-1.559h6.613
	c1.051,0,1.906,0.698,1.906,1.559V23.667z M51.467,45.752c0,0.857-0.852,1.555-1.902,1.555H27.918c-1.049,0-1.9-0.695-1.9-1.555
	v-5.414c0-0.855,0.854-1.559,1.9-1.559h21.646c1.053,0,1.9,0.697,1.9,1.559L51.467,45.752z M51.467,34.709
	c0,0.859-0.852,1.557-1.902,1.557H27.918c-1.049,0-1.9-0.693-1.9-1.557v-5.412c0-0.857,0.854-1.562,1.9-1.562h21.646
	c1.053,0,1.9,0.7,1.9,1.562L51.467,34.709z M51.467,23.667c0,0.856-0.852,1.559-1.902,1.559H27.918c-1.049,0-1.9-0.697-1.9-1.559
	v-5.415c0-0.858,0.854-1.559,1.9-1.559h21.646c1.053,0,1.9,0.698,1.9,1.559L51.467,23.667z"/>
</svg>
