<?xml version="1.0" encoding="utf-8"?>
<!-- Generator: Adobe Illustrator 16.0.4, SVG Export Plug-In . SVG Version: 6.00 Build 0)  -->
<!DOCTYPE svg PUBLIC "-//W3C//DTD SVG 1.1//EN" "http://www.w3.org/Graphics/SVG/1.1/DTD/svg11.dtd">
<svg version="1.1" id="Layer_2" xmlns="http://www.w3.org/2000/svg" xmlns:xlink="http://www.w3.org/1999/xlink" x="0px" y="0px"
	 width="64px" height="64px" viewBox="-10.5 217.5 64 64" enable-background="new -10.5 217.5 64 64" xml:space="preserve">
<path d="M1.007,243.188c-4.706,0-8.522-3.819-8.522-8.529c-0.001-4.709,3.816-8.525,8.525-8.525
	c4.707-0.003,8.524,3.817,8.523,8.525C9.536,239.368,5.717,243.188,1.007,243.188z"/>
<path d="M-2.185,261.691c-4.238-0.002-7.674-3.438-7.675-7.678c0.001-4.236,3.435-7.672,7.675-7.672
	c4.236-0.002,7.674,3.434,7.676,7.674C5.487,258.255,2.051,261.691-2.185,261.691z"/>
<path d="M8.887,277.259c-3.815,0-6.904-3.096-6.907-6.909c0.003-3.814,3.093-6.904,6.907-6.906c3.812,0,6.904,3.09,6.904,6.904
	C15.793,274.163,12.7,277.257,8.887,277.259z"/>
<circle cx="28.38" cy="273.453" r="6.218"/>
<path d="M44.555,268.335c-3.088-0.001-5.592-2.508-5.594-5.599c0.002-3.092,2.506-5.596,5.596-5.592
	c3.084-0.002,5.592,2.5,5.596,5.595C50.148,265.827,47.641,268.335,44.555,268.335z"/>
<circle cx="47.825" cy="243.188" r="5.037"/>
<path d="M36.697,231.457c-2.502,0.002-4.531-2.027-4.531-4.531c0.002-2.507,2.027-4.531,4.531-4.529
	c2.5-0.002,4.531,2.024,4.531,4.529C41.227,229.43,39.197,231.456,36.697,231.457z"/>
<circle cx="17.264" cy="223.408" r="4.079"/>
</svg>
