<?xml version="1.0" encoding="utf-8"?>
<!-- Generator: Adobe Illustrator 15.0.0, SVG Export Plug-In . SVG Version: 6.00 Build 0)  -->
<!DOCTYPE svg PUBLIC "-//W3C//DTD SVG 1.1//EN" "http://www.w3.org/Graphics/SVG/1.1/DTD/svg11.dtd">
<svg version="1.1" id="Layer_1" xmlns="http://www.w3.org/2000/svg" xmlns:xlink="http://www.w3.org/1999/xlink" x="0px" y="0px"
	 width="64px" height="64px" viewBox="0 0 64 64" enable-background="new 0 0 64 64" xml:space="preserve">
<path d="M55.104,23.281c0,12.674-22.783,40.172-23.098,40.551v-30.52c5.76-0.008,10.426-4.679,10.426-10.438
	c0-5.761-4.668-10.433-10.426-10.44V0.167C44.764,0.174,55.104,10.52,55.104,23.281z M8.896,23.281
	c0,12.674,22.783,40.172,23.099,40.551v-30.52c-5.76-0.008-10.426-4.679-10.426-10.438c0-5.761,4.667-10.433,10.426-10.44V0.167
	C19.236,0.174,8.896,10.52,8.896,23.281z"/>
</svg>
