<?xml version="1.0" encoding="utf-8"?>
<!-- Generator: Adobe Illustrator 15.0.0, SVG Export Plug-In . SVG Version: 6.00 Build 0)  -->
<!DOCTYPE svg PUBLIC "-//W3C//DTD SVG 1.1//EN" "http://www.w3.org/Graphics/SVG/1.1/DTD/svg11.dtd">
<svg version="1.1" id="Layer_1" xmlns="http://www.w3.org/2000/svg" xmlns:xlink="http://www.w3.org/1999/xlink" x="0px" y="0px"
	 width="64px" height="64px" viewBox="0 0 64 64" enable-background="new 0 0 64 64" xml:space="preserve">
<path class="back" fill="#003F87" d="M32.002,0C14.355,0,0,14.355,0,31.999C0,41.436,4.107,49.93,10.628,55.79C16.296,60.893,23.793,64,32.002,64
	c8.87,0,16.905-3.627,22.704-9.477C60.447,48.734,64,40.773,64,31.999C64,14.355,49.646,0,32.002,0L32.002,0z"/>
<path class="front" fill="#FFFFFF" d="M31.012,12.706c4.129,0,8.201,0.652,12.129,1.893l-0.322-0.063L40.58,26.302
	c-5.119-1.049-10.41-1.16-15.323-0.376l-2.313-12.362C25.594,13.026,28.301,12.706,31.012,12.706z M10.596,31.09
	c-2.521-3.771-4.689-7.028-5.773-8.705c4.602-3.929,10.021-6.771,15.813-8.312l2.309,12.278
	C18.582,27.268,14.445,28.856,10.596,31.09z M16.236,39.622c-1.438-2.165-2.918-4.401-4.336-6.563
	c3.58-2.062,7.427-3.529,11.469-4.396l1.91,10.246c-2.758,0.438-5.463,1.161-8.086,2.163L16.236,39.622z M23.982,51.294
	c-0.801-1.206-2.899-4.37-5.453-8.208c2.334-0.846,4.742-1.471,7.18-1.857l1.875,10.065H23.982z M35.816,51.294h-5.823
	l-1.938-10.376c1.328-0.144,2.684-0.232,4.129-0.232c1.945,0,3.776,0.16,5.57,0.418L35.816,51.294L35.816,51.294z M27.621,38.598
	l-1.939-10.361c2.014-0.319,4.082-0.519,6.197-0.519c2.766,0,5.532,0.308,8.264,0.867l-1.945,10.195
	C34.742,38.278,31.029,38.221,27.621,38.598z M41.286,51.294h-3.065l1.856-9.776c2.226,0.438,4.372,1.063,6.444,1.853L41.286,51.294
	z M47.873,41.313c-2.35-0.926-4.813-1.646-7.35-2.146l1.902-10.01c3.695,0.988,7.207,2.506,10.482,4.525L47.873,41.313z
	 M54.213,31.715c-3.535-2.19-7.34-3.832-11.336-4.883l2.193-11.577c5.229,1.928,10.064,4.991,14.107,8.932L54.213,31.715z"/>
</svg>
