<?xml version="1.0" encoding="utf-8"?>
<!-- Generator: Adobe Illustrator 16.0.0, SVG Export Plug-In . SVG Version: 6.00 Build 0)  -->
<!DOCTYPE svg PUBLIC "-//W3C//DTD SVG 1.1//EN" "http://www.w3.org/Graphics/SVG/1.1/DTD/svg11.dtd">
<svg version="1.1" id="Layer_2" xmlns="http://www.w3.org/2000/svg" xmlns:xlink="http://www.w3.org/1999/xlink" x="0px" y="0px"
	 width="128px" height="128px" viewBox="0 0 128 128" enable-background="new 0 0 128 128" xml:space="preserve">
<path d="M108.736,74.091H62.755v3.621h41.059v43.539H28.561v-14.07h-9.297c-4.026,0-7.29-3.266-7.29-7.291v17.693
	c0,4.025,3.265,7.289,7.29,7.289h89.473c4.025,0,7.289-3.264,7.289-7.289V81.38C116.025,77.354,112.762,74.091,108.736,74.091z
	 M111.008,105.058h-2.17v-12.29h2.17V105.058z"/>
<path d="M55.465,3.128H19.264c-4.026,0-7.29,3.265-7.29,7.291V81.38v18.51c0,4.025,3.264,7.291,7.29,7.291h9.297h26.904
	c4.026,0,7.29-3.266,7.29-7.291V77.712v-3.621V10.419C62.755,6.393,59.491,3.128,55.465,3.128z M30.65,8.147H42.94v2.168H30.65
	V8.147z M37.365,104.675c-3.08,0-5.577-2.496-5.577-5.576c0-3.079,2.497-5.577,5.577-5.577c3.08,0,5.576,2.498,5.576,5.577
	C42.94,102.179,40.444,104.675,37.365,104.675z M59.133,77.712v12.883H28.561H15.595V75.089V15.341h43.538v58.75V77.712z"/>
<path d="M111.749,64.001h-8.019c0-3.357-0.707-11.8-7.248-17.688c-3.663-3.298-8.543-5.224-14.568-5.763v12.087L67.303,37.313
	l14.611-15.324v10.523c8.103,0.593,14.788,3.208,19.934,7.841C108.141,46.018,111.749,54.637,111.749,64.001z"/>
</svg>
