<?xml version="1.0" encoding="utf-8"?>
<!-- Generator: Adobe Illustrator 15.0.0, SVG Export Plug-In . SVG Version: 6.00 Build 0)  -->
<!DOCTYPE svg PUBLIC "-//W3C//DTD SVG 1.1//EN" "http://www.w3.org/Graphics/SVG/1.1/DTD/svg11.dtd">
<svg version="1.1" id="Layer_1" xmlns="http://www.w3.org/2000/svg" xmlns:xlink="http://www.w3.org/1999/xlink" x="0px" y="0px"
	 width="64px" height="64px" viewBox="0 0 64 64" enable-background="new 0 0 64 64" xml:space="preserve">
<path d="M55.418,27H8.655C4.352,27,4.5,29.241,4.5,32.001C4.5,34.759,4.352,37,8.655,37h46.763c4.3,0,4.08-2.241,4.08-4.999
	C59.498,29.241,59.718,27,55.418,27z M37,55.418V8.655C37,4.352,34.759,4.5,31.999,4.5C29.241,4.5,27,4.352,27,8.655v46.763
	c0,4.3,2.241,4.08,4.999,4.08C34.759,59.498,37,59.718,37,55.418z"/>
</svg>
