<?xml version="1.0" encoding="utf-8"?>
<!-- Generator: Adobe Illustrator 15.0.0, SVG Export Plug-In . SVG Version: 6.00 Build 0)  -->
<!DOCTYPE svg PUBLIC "-//W3C//DTD SVG 1.1//EN" "http://www.w3.org/Graphics/SVG/1.1/DTD/svg11.dtd">
<svg version="1.1" id="Layer_1" xmlns="http://www.w3.org/2000/svg" xmlns:xlink="http://www.w3.org/1999/xlink" x="0px" y="0px"
	 width="64px" height="64px" viewBox="0 0 64 64" enable-background="new 0 0 64 64" xml:space="preserve">
<path class="front" fill="#FFFFFF" d="M34.113,28.313c-4.336-1.795-4.66-2.625-4.66-3.688c0-1.424,1.193-2.271,3.191-2.271
	c2.615,0,4.252,0.938,4.957,1.346c0.422,0.234,0.936,0.281,1.396,0.115s0.827-0.521,1.003-0.98l1.146-3.027
	c0.291-0.768-0.01-1.627-0.723-2.045c-1.543-0.902-3.23-1.465-5.14-1.705V13.15c0-0.924-0.752-1.676-1.677-1.676h-2.844
	c-0.925,0-1.677,0.752-1.677,1.676v3.296c-4.29,1.215-6.932,4.521-6.932,8.733c0,5.379,4.146,7.744,8.618,9.5
	c3.64,1.475,4.142,2.747,4.142,3.907c0,1.718-1.487,2.826-3.789,2.826c-1.998,0-4.067-0.618-5.676-1.695
	c-0.421-0.282-0.972-0.354-1.459-0.196c-0.497,0.166-0.88,0.541-1.054,1.025l-1.101,3.076c-0.255,0.702-0.008,1.497,0.603,1.936
	c1.561,1.109,3.894,1.924,6.325,2.215v3.076c0,0.924,0.751,1.676,1.675,1.676h2.893c0.925,0,1.678-0.752,1.678-1.676v-3.438
	c4.425-1.271,7.255-4.812,7.255-9.146C42.268,32.396,37.909,29.864,34.113,28.313L34.113,28.313z"/>
</svg>
