<?xml version="1.0" encoding="utf-8"?>
<!-- Generator: Adobe Illustrator 15.0.0, SVG Export Plug-In . SVG Version: 6.00 Build 0)  -->
<!DOCTYPE svg PUBLIC "-//W3C//DTD SVG 1.1//EN" "http://www.w3.org/Graphics/SVG/1.1/DTD/svg11.dtd">
<svg version="1.1" id="Layer_1" xmlns="http://www.w3.org/2000/svg" xmlns:xlink="http://www.w3.org/1999/xlink" x="0px" y="0px"
	 width="64px" height="64px" viewBox="0 0 64 64" enable-background="new 0 0 64 64" xml:space="preserve">
<path class="back" fill="#003F87" d="M32.002,0C14.355,0,0,14.355,0,31.999C0,41.436,4.107,49.93,10.628,55.79C16.296,60.893,23.793,64,32.002,64
	c8.87,0,16.905-3.627,22.704-9.477C60.447,48.734,64,40.773,64,31.999C64,14.355,49.646,0,32.002,0L32.002,0z"/>
<path class="front" fill="#FFFFFF" d="M36.992,28.819v20.862c-3.078,0-9.454-6.054-9.454-6.054v-14.81c0,0-12.851-10.998-12.851-14.5h34.625
	C49.313,18.352,36.992,28.819,36.992,28.819z"/>
</svg>
