<?xml version="1.0" encoding="utf-8"?>
<!-- Generator: Adobe Illustrator 15.0.0, SVG Export Plug-In . SVG Version: 6.00 Build 0)  -->
<!DOCTYPE svg PUBLIC "-//W3C//DTD SVG 1.1//EN" "http://www.w3.org/Graphics/SVG/1.1/DTD/svg11.dtd">
<svg version="1.1" id="Layer_1" xmlns="http://www.w3.org/2000/svg" xmlns:xlink="http://www.w3.org/1999/xlink" x="0px" y="0px"
	 width="64px" height="64px" viewBox="0 0 64 64" enable-background="new 0 0 64 64" xml:space="preserve">
<path class="back" fill="#003F87" d="M32.002,0C14.355,0,0,14.355,0,31.999c0,9.436,4.107,17.93,10.628,23.791
	C16.296,60.892,23.793,64,32.002,64c8.87,0,16.905-3.627,22.704-9.477C60.447,48.734,64,40.773,64,31.999
	C64,14.355,49.646,0,32.002,0L32.002,0z"/>
<path class="front" fill="#FFFFFF" d="M50.596,12.835c-0.568-0.232-1.229-0.104-1.664,0.328l-3.8,3.801
	c-3.536-3.009-8.085-4.771-12.862-4.771c-10.92,0-19.806,8.885-19.806,19.807c0,10.924,8.886,19.809,19.806,19.809
	c6.588,0,12.729-3.264,16.422-8.729c1.021-1.51,0.623-3.559-0.885-4.577c-1.511-1.021-3.562-0.623-4.578,0.885
	c-2.465,3.648-6.563,5.83-10.959,5.83c-7.285,0-13.211-5.928-13.211-13.215c0-7.285,5.926-13.211,13.211-13.211
	c3.01,0,5.875,1.063,8.172,2.872l-4.491,4.492c-0.438,0.438-0.565,1.093-0.331,1.662s0.794,0.94,1.41,0.94h12.982
	c0.842,0,1.524-0.686,1.524-1.526V14.243C51.536,13.626,51.166,13.067,50.596,12.835L50.596,12.835z"/>
</svg>
