<svg xmlns="http://www.w3.org/2000/svg" width="64" height="64" viewBox="0 0 64 64">
    <path class="calendar" d="M57.897 4.261h-7.29v5.343c0 2.007-1.626 3.632-3.633 3.632-2.006 0-3.633-1.625-3.633-3.632v-5.343h-22.31v5.343c0 2.007-1.626 3.632-3.633 3.632-2.005 0-3.632-1.625-3.632-3.632v-5.343h-7.662c-3.323 0-6.016 2.693-6.016 6.016v47.233c0 3.323 2.693 6.017 6.016 6.017h51.793c3.322 0 6.016-2.692 6.016-6.017v-47.232c0-3.324-2.694-6.017-6.016-6.017zm1.457 54.422h-54.422v-41.505h54.422v41.505zm-50.406-38.019v35.04h46.416v-35.04h-46.416zm21.099 2.278v4.906c-.178-.014-.356-.029-.538-.029h-6.473c-.312 0-.618.027-.92.069v-4.946h7.931zm-7.931 10.726h7.931v8.446h-7.931v-8.446zm-11.131-10.726h7.932v6.271c-.778.579-1.452 1.318-1.989 2.174h-5.943v-8.445zm0 10.726h4.93c-.226.797-.349 1.646-.349 2.523v3.28c0 .923.139 1.811.387 2.643h-4.968v-8.446zm0 19.17v-8.445h6.02c.524.807 1.169 1.507 1.912 2.061v6.386l-7.932-.002zm11.131 0v-5.063c.302.043.608.07.92.07h6.473c.182 0 .36-.016.538-.031v5.021l-7.931.003zm19.062 0h-7.93v-6.126c.902-.587 1.682-1.379 2.294-2.319h5.636v8.445zm0-10.724h-4.584c.248-.832.387-1.718.387-2.643v-3.28c0-.879-.123-1.728-.349-2.523h4.546v8.446zm0-10.726h-5.56c-.623-.992-1.432-1.822-2.371-2.436v-6.011h7.93v8.445l.001.002zm11.13 21.45h-7.93v-8.445h7.93v8.445zm0-10.724h-7.93v-8.446h7.93v8.446zm0-10.726h-7.93v-8.445h7.93v8.445zm-32.373-22.102c0 1.397-1.135 2.535-2.538 2.535-1.401 0-2.537-1.138-2.537-2.535v-6.009c0-1.399 1.136-2.536 2.537-2.536 1.402 0 2.538 1.136 2.538 2.536v6.009zm29.577 0c0 1.397-1.137 2.535-2.538 2.535-1.401 0-2.537-1.138-2.537-2.535v-6.009c0-1.399 1.136-2.536 2.537-2.536s2.538 1.136 2.538 2.536v6.009z"/>
</svg>
