<?xml version="1.0" encoding="utf-8"?>
<!-- Generator: Adobe Illustrator 15.0.0, SVG Export Plug-In . SVG Version: 6.00 Build 0)  -->
<!DOCTYPE svg PUBLIC "-//W3C//DTD SVG 1.1//EN" "http://www.w3.org/Graphics/SVG/1.1/DTD/svg11.dtd">
<svg version="1.1" id="Layer_1" xmlns="http://www.w3.org/2000/svg" xmlns:xlink="http://www.w3.org/1999/xlink" x="0px" y="0px"
	 width="64px" height="64px" viewBox="0 0 64 64" enable-background="new 0 0 64 64" xml:space="preserve">
<path d="M50.596,12.835c-0.568-0.232-1.229-0.104-1.664,0.328l-3.8,3.801c-3.536-3.009-8.085-4.771-12.862-4.771
	c-10.92,0-19.806,8.885-19.806,19.807c0,10.924,8.886,19.809,19.806,19.809c6.587,0,12.729-3.264,16.421-8.729
	c1.021-1.51,0.623-3.559-0.885-4.577c-1.511-1.021-3.562-0.623-4.578,0.886c-2.465,3.647-6.563,5.829-10.958,5.829
	c-7.285,0-13.211-5.928-13.211-13.215c0-7.285,5.926-13.211,13.211-13.211c3.009,0,5.875,1.063,8.171,2.872l-4.49,4.492
	c-0.438,0.438-0.564,1.093-0.331,1.662c0.233,0.569,0.794,0.94,1.409,0.94h12.982c0.842,0,1.524-0.686,1.524-1.526V14.243
	C51.536,13.626,51.166,13.067,50.596,12.835L50.596,12.835z"/>
</svg>
