<?xml version="1.0" encoding="utf-8"?>
<!-- Generator: Adobe Illustrator 16.0.4, SVG Export Plug-In . SVG Version: 6.00 Build 0)  -->
<!DOCTYPE svg PUBLIC "-//W3C//DTD SVG 1.1//EN" "http://www.w3.org/Graphics/SVG/1.1/DTD/svg11.dtd">
<svg version="1.1" id="Layer_1" xmlns="http://www.w3.org/2000/svg" xmlns:xlink="http://www.w3.org/1999/xlink" x="0px" y="0px"
	 width="64px" height="64px" viewBox="0 0 64 64" enable-background="new 0 0 64 64" xml:space="preserve">
<path d="M47.318,43.242c2.078-2.354,3.692-5.006,4.834-7.973c1.138-2.966,1.715-6.076,1.715-9.336
	c0-3.521-0.68-6.875-2.028-10.08c-1.347-3.2-3.162-5.958-5.445-8.274c-2.295-2.315-5.016-4.159-8.168-5.527
	C35.073,0.681,31.76,0,28.286,0c-3.477,0-6.782,0.681-9.941,2.052c-3.152,1.368-5.869,3.212-8.159,5.527
	c-2.289,2.316-4.105,5.075-5.454,8.274c-1.346,3.205-2.022,6.558-2.022,10.08c0,3.522,0.676,6.882,2.022,10.078
	c1.349,3.199,3.166,5.957,5.454,8.277c2.29,2.314,5.007,4.162,8.159,5.529c3.16,1.367,6.465,2.051,9.941,2.051
	c4.384,0,8.528-1.098,12.428-3.295L55.877,64l5.981-6.012L47.318,43.242z M44.002,32.666c-0.902,2.133-2.117,3.975-3.634,5.514
	c-1.525,1.545-3.333,2.777-5.44,3.691c-2.106,0.914-4.324,1.371-6.642,1.371c-2.319,0-4.529-0.457-6.632-1.371
	c-2.106-0.914-3.924-2.146-5.45-3.691c-1.518-1.539-2.728-3.381-3.629-5.514c-0.903-2.134-1.355-4.381-1.355-6.732
	c0-2.354,0.453-4.597,1.355-6.734c0.902-2.133,2.111-3.971,3.629-5.514c1.526-1.544,3.344-2.772,5.45-3.687
	c2.103-0.915,4.313-1.372,6.632-1.372c2.317,0,4.536,0.458,6.642,1.372c2.107,0.914,3.915,2.142,5.44,3.687
	c1.517,1.542,2.731,3.381,3.634,5.514c0.901,2.137,1.354,4.38,1.354,6.734C45.356,28.285,44.903,30.531,44.002,32.666z"/>
</svg>
