<?xml version="1.0" encoding="utf-8"?>
<!-- Generator: Adobe Illustrator 16.0.4, SVG Export Plug-In . SVG Version: 6.00 Build 0)  -->
<!DOCTYPE svg PUBLIC "-//W3C//DTD SVG 1.1//EN" "http://www.w3.org/Graphics/SVG/1.1/DTD/svg11.dtd">
<svg version="1.1" id="Layer_1" xmlns="http://www.w3.org/2000/svg" xmlns:xlink="http://www.w3.org/1999/xlink" x="0px" y="0px"
	 width="156px" height="80px" viewBox="0 0 156 80" enable-background="new 0 0 156 80" xml:space="preserve">
<path fill="#EDEDED" stroke="#BFBFBF" stroke-width="0.6415" d="M150.035,2.639C133.977-4.174,5.703,11.795,1.697,22.279
	c-4.007,10.479,10.579,39.745,10.579,39.745L4.895,78.791l20.556-14.979c0,0,105.401,9.952,112.333,6.114
	C144.718,66.086,164.015,8.57,150.035,2.639z"/>
<path fill="#FFFFFF" d="M147.325,5.971C132.359,0.173,6.898,14.064,3.165,23.831c-2.961,10.162,11.17,38.043,11.17,38.043
	L8.697,73.927L25.028,61.68c0,0,103.993,9.203,110.455,5.629C141.944,63.73,159.068,10.563,147.325,5.971z"/>
<path fill="#BFBFBF" d="M36.938,27.278v3.782h1.768v3.784h-1.768v12.8c0,1.57,0.06,2.451,0.18,2.633
	c0.123,0.178,0.638,0.27,1.548,0.27v3.855h-2.177c-1.23,0-2.111-0.072-2.636-0.214c-0.529-0.136-0.989-0.451-1.391-0.952
	c-0.399-0.502-0.644-1.069-0.741-1.713c-0.101-0.642-0.145-2.147-0.145-4.534V34.844h-1.538V31.06h1.538v-3.783L36.938,27.278
	L36.938,27.278z"/>
<path fill="#BFBFBF" d="M27.595,34.073h-5.191v-2.151c0-2.087-1.215-2.331-1.872-2.331c-0.758,0-2.02,0.208-2.02,2.243
	c0,0.966-0.009,1.735,0.294,2.187c0.805,1.21,2.667,2.26,3.651,2.929c2.893,1.964,3.966,2.518,4.608,3.798
	c0.64,1.286,0.959,3.359,0.959,6.214c0,2.079-0.181,3.61-0.539,4.594c-0.361,0.982-1.051,1.807-2.074,2.475
	c-1.021,0.661-3.026,1.002-4.596,1.002c-1.803,0-3.811-0.388-4.864-1.157c-1.05-0.77-1.737-1.75-2.057-2.94
	c-0.326-1.188-0.487-2.882-0.487-5.069v-1.911h5.19v3.533c0,2.127,1.161,2.565,1.976,2.565c0.714,0,2.089-0.347,2.089-2.354
	c0-1.712-0.135-2.847-0.509-3.356c-0.751-1.023-2.73-2.188-4.676-3.438c-1.55-0.996-3.036-2.389-3.807-4.28
	c-0.397-0.976-0.435-2.274-0.435-3.819c0-2.229,0.208-3.868,0.628-4.896c0.418-1.036,1.094-1.836,2.033-2.423
	c0.936-0.585,3.099-0.873,4.429-0.873c1.443,0,3.712,0.319,4.737,0.958c1.021,0.639,1.698,1.44,2.03,2.411
	c0.331,0.969,0.499,2.611,0.499,4.939v1.153H27.595z"/>
<path fill="#BFBFBF" d="M63.436,25.298v6.786c2.645-1.669,4.782-1.952,5.456-1.952c0.863,0,1.609,0.294,2.24,0.877
	c0.624,0.581,1.023,1.258,1.206,2.028c0.175,0.771,0.269,2.075,0.269,3.915v11.207c0,1.771-0.094,3.046-0.269,3.829
	c-0.182,0.778-0.578,1.467-1.2,2.063c-0.621,0.594-1.346,0.892-2.18,0.892c-1.143,0-2.967-0.488-5.521-2.163v1.741H58.07V25.298
	H63.436L63.436,25.298z M63.436,47.691c0,2.657,1.194,3.048,1.949,3.048c0.876,0,1.858-0.421,1.858-3.057v-11.12
	c0-1.879-1.074-2.224-1.881-2.224c-0.815,0-1.925,0.437-1.925,2.224V47.691L63.436,47.691z"/>
<path fill="#BFBFBF" d="M55.474,30.621v23.9h-5.456l0.093-1.99c-2.437,1.666-4.657,2.411-5.373,2.411
	c-0.811,0-1.484-0.196-2.023-0.579c-0.539-0.383-0.938-0.894-1.198-1.525c-0.258-0.638-0.426-1.301-0.482-1.99
	c-0.06-0.692-0.087-2.063-0.087-4.109V30.623h5.361v16.274c0,3.397,0.814,3.842,1.902,3.842c0.923,0,1.903-0.399,1.903-4.021V30.623
	L55.474,30.621L55.474,30.621z"/>
<polygon fill="#BFBFBF" points="93.289,54.638 93.271,25.422 87.651,25.422 87.651,37.712 87.645,37.712 81.682,37.712 
	81.677,37.712 81.677,25.422 76.057,25.422 76.035,54.638 81.677,54.647 81.677,42.693 84.663,42.693 87.651,42.693 87.651,54.647 
	"/>
<path fill="#BFBFBF" d="M118.153,25.381v6.786c2.648-1.665,4.783-1.951,5.451-1.951c0.87,0,1.613,0.292,2.241,0.877
	c0.625,0.581,1.03,1.258,1.207,2.029c0.181,0.77,0.27,2.074,0.27,3.912v11.208c0,1.768-0.091,3.043-0.27,3.822
	c-0.177,0.787-0.58,1.474-1.194,2.07c-0.617,0.592-1.35,0.894-2.187,0.894c-1.141,0-2.96-0.488-5.519-2.159v1.739h-5.362V25.381
	H118.153L118.153,25.381z M118.153,47.774c0,2.656,1.192,3.046,1.945,3.046c0.875,0,1.857-0.418,1.857-3.054V36.648
	c0-1.882-1.076-2.225-1.885-2.225c-0.811,0-1.92,0.439-1.92,2.225v11.126H118.153z"/>
<path fill="#BFBFBF" d="M110.215,30.612v23.903h-5.461l0.097-1.992c-2.44,1.664-4.657,2.41-5.373,2.41
	c-0.812,0-1.485-0.195-2.024-0.58c-0.538-0.381-0.938-0.892-1.203-1.527c-0.254-0.634-0.415-1.299-0.475-1.987
	c-0.062-0.691-0.093-2.062-0.093-4.111V30.614h5.364v16.271c0,3.397,0.816,3.841,1.9,3.841c0.925,0,1.903-0.394,1.903-4.019V30.614
	L110.215,30.612L110.215,30.612z"/>
<path fill="#BFBFBF" d="M140.718,50.01c0,2.603-2.104,4.711-4.709,4.711c-2.603,0-4.713-2.108-4.713-4.711
	c0-2.601,2.11-4.709,4.713-4.709C138.613,45.299,140.718,47.409,140.718,50.01z"/>
<polyline fill="#BFBFBF" points="132.831,44.34 135.27,44.525 135.294,44.401 135.339,44.267 135.393,44.129 135.46,44 
	135.536,43.88 135.641,43.771 135.748,43.666 135.86,43.572 135.983,43.497 136.113,43.443 136.238,43.396 136.378,43.362 
	136.517,43.347 136.669,43.336 136.81,43.347 136.951,43.362 137.085,43.396 137.217,43.443 137.329,43.497 137.454,43.572 
	137.564,43.666 137.678,43.771 137.767,43.88 137.859,44 137.932,44.129 137.997,44.267 138.038,44.401 138.076,44.545 
	138.095,44.696 138.097,44.741 140.371,44.915 143.267,19.346 140.222,19.025 140.168,19.118 140.126,19.214 140.024,19.395 
	139.898,19.564 139.824,19.644 139.755,19.727 139.6,19.88 139.513,19.948 139.436,20.02 139.386,20.046 139.362,20.056 
	139.35,20.061 139.345,20.073 139.258,20.136 139.166,20.182 139.08,20.234 138.986,20.27 138.895,20.304 138.7,20.358 
	138.491,20.389 138.284,20.401 138.065,20.389 137.859,20.358 137.658,20.304 137.469,20.234 137.281,20.136 137.106,20.02 
	136.933,19.88 136.777,19.727 136.731,19.687 136.701,19.65 136.646,19.57 136.559,19.457 136.482,19.342 136.415,19.219 
	136.359,19.104 136.307,18.978 136.268,18.85 136.231,18.715 136.213,18.589 133.644,18.274 132.835,44.34 "/>
<path fill="#FF7300" d="M137.506,15.386l-0.092,0.204l-0.053,0.098l-0.034,0.048l-0.023,0.057l-0.036,0.041l-0.031,0.05
	l-0.064,0.096l-0.078,0.085l-0.023,0.017l-0.021,0.023l-0.035,0.049l-0.155,0.159l-0.086,0.066l-0.08,0.074l-0.172,0.113
	l-0.093,0.05l-0.085,0.047l-0.099,0.037l-0.089,0.035l-0.195,0.056l-0.205,0.028l-0.11,0.006h-0.054l-0.05,0.006l-0.228-0.012
	l-0.206-0.028l-0.199-0.056l-0.19-0.072l-0.188-0.097l-0.047-0.029c-0.299-0.167-0.551-0.411-0.724-0.701l-0.088-0.13l-0.056-0.091
	l-0.045-0.091l-0.011-0.03l-0.062-0.253l-0.043-0.108l-3.117-0.212l-0.078,27.923l1.867,0.097l0.149,0.009l0.865-25.456l2.793,0.311
	l0.004,0.11l0.021,0.115l0.034,0.104l0.047,0.11l0.104,0.205l0.069,0.098l0.079,0.103l0.118,0.134l0.143,0.119l0.146,0.104
	l0.157,0.096l0.158,0.074l0.175,0.06l0.185,0.043l0.201,0.037l0.255,0.012l0.119-0.004l0.063-0.007h0.062l0.161-0.037l0.161-0.043
	l0.072-0.029l0.036-0.018l0.038-0.013l0.074-0.037l0.04-0.02l0.041-0.01l0.061-0.042l0.064-0.037l0.123-0.091l0.104-0.084
	l0.099-0.079l0.089-0.083l0.082-0.087l0.075-0.097l0.065-0.096l0.021-0.056l0.032-0.046l0.057-0.097l0.882,0.122l0.475-2.75
	L137.506,15.386z"/>
<circle fill="#004B91" cx="135.407" cy="49.429" r="4.711"/>
<polyline fill="#004B91" points="132.229,43.759 134.668,43.946 134.693,43.821 134.738,43.687 134.793,43.547 134.859,43.422 
	134.938,43.301 135.039,43.19 135.147,43.088 135.261,42.995 135.384,42.918 135.509,42.862 135.638,42.815 135.776,42.782 
	135.918,42.769 136.069,42.758 136.209,42.769 136.349,42.782 136.484,42.815 136.618,42.862 136.731,42.918 136.856,42.995 
	136.962,43.088 137.074,43.19 137.163,43.301 137.26,43.422 137.327,43.547 137.397,43.687 137.437,43.821 137.478,43.966 
	137.492,44.117 137.495,44.162 139.771,44.335 142.668,18.766 139.616,18.446 139.569,18.536 139.525,18.635 139.423,18.815 
	139.298,18.985 139.224,19.065 139.156,19.148 138.997,19.3 138.912,19.366 138.831,19.44 138.782,19.466 138.761,19.477 
	138.747,19.48 138.74,19.492 138.659,19.556 138.564,19.603 138.481,19.654 138.384,19.689 138.293,19.723 138.097,19.781 
	137.89,19.81 137.686,19.823 137.467,19.81 137.26,19.781 137.056,19.723 136.869,19.654 136.68,19.556 136.501,19.44 136.33,19.3 
	136.175,19.148 136.132,19.106 136.101,19.071 136.043,18.991 135.954,18.878 135.88,18.762 135.813,18.64 135.761,18.523 
	135.705,18.398 135.67,18.27 135.634,18.138 135.612,18.008 133.043,17.695 132.232,43.759 "/>
<path fill="#004B91" d="M142.411,16.106c0.494,0,0.889,0.4,0.889,0.907c0,0.512-0.395,0.91-0.894,0.91
	c-0.498,0-0.899-0.398-0.899-0.91c0-0.504,0.401-0.907,0.899-0.907H142.411z M142.406,16.248c-0.4,0-0.725,0.342-0.725,0.765
	c0,0.431,0.322,0.77,0.728,0.77c0.4,0.002,0.722-0.339,0.722-0.768c0-0.425-0.319-0.767-0.722-0.767H142.406L142.406,16.248z
	 M142.236,17.54h-0.16v-1.011c0.082-0.014,0.165-0.024,0.284-0.024c0.154,0,0.255,0.033,0.313,0.076
	c0.061,0.044,0.091,0.112,0.091,0.208c0,0.132-0.086,0.214-0.198,0.245v0.01c0.091,0.016,0.152,0.097,0.172,0.247
	c0.023,0.156,0.048,0.217,0.063,0.248h-0.168c-0.025-0.029-0.049-0.125-0.07-0.255c-0.021-0.13-0.089-0.179-0.214-0.179h-0.115
	L142.236,17.54L142.236,17.54z M142.236,16.98h0.116c0.131,0,0.248-0.048,0.248-0.173c0-0.089-0.066-0.179-0.248-0.179
	c-0.054,0-0.093,0.007-0.116,0.009V16.98z"/>
<path fill="#FF7300" d="M109.614,30.035v23.899h-5.462l0.099-1.99c-2.442,1.665-4.663,2.41-5.375,2.41
	c-0.811,0-1.485-0.194-2.021-0.579c-0.541-0.382-0.938-0.893-1.205-1.527c-0.259-0.636-0.42-1.299-0.476-1.988
	c-0.063-0.692-0.091-2.062-0.091-4.111V30.035h5.362v16.271c0,3.397,0.816,3.841,1.898,3.841c0.926,0,1.908-0.394,1.908-4.02V30.033
	h5.365v0.002H109.614L109.614,30.035z"/>
<path fill="#FF7300" d="M117.551,24.802v6.785c2.654-1.665,4.782-1.95,5.455-1.95c0.866,0,1.608,0.289,2.239,0.876
	c0.628,0.581,1.031,1.259,1.207,2.029c0.178,0.772,0.27,2.073,0.27,3.915v11.207c0,1.767-0.094,3.044-0.27,3.82
	c-0.176,0.788-0.579,1.475-1.195,2.07c-0.619,0.594-1.349,0.896-2.187,0.896c-1.143,0-2.958-0.49-5.52-2.159v1.738h-5.362V24.802
	H117.551L117.551,24.802z M117.551,47.196c0,2.656,1.192,3.048,1.948,3.048c0.876,0,1.856-0.421,1.856-3.057v-11.12
	c0-1.882-1.078-2.224-1.884-2.224c-0.813,0-1.921,0.44-1.921,2.224V47.196L117.551,47.196z"/>
<polygon fill="#FF7300" points="92.69,54.058 92.673,24.842 87.048,24.842 87.048,37.133 87.046,37.133 81.083,37.133 
	81.079,37.133 81.079,24.842 75.454,24.842 75.437,54.058 81.079,54.067 81.079,42.113 84.061,42.113 87.048,42.113 87.048,54.067 
	"/>
<path fill="#004B91" d="M36.335,26.698v3.782h1.77v3.784h-1.77v12.799c0,1.571,0.062,2.453,0.18,2.634
	c0.125,0.179,0.64,0.27,1.55,0.27v3.855h-2.179c-1.229,0-2.11-0.074-2.638-0.213c-0.527-0.135-0.988-0.452-1.387-0.953
	c-0.402-0.503-0.647-1.066-0.745-1.712c-0.098-0.642-0.143-2.148-0.143-4.534V34.264h-1.539V30.48h1.539v-3.782L36.335,26.698
	L36.335,26.698z"/>
<path fill="#004B91" d="M26.994,33.493h-5.189v-2.152c0-2.086-1.217-2.332-1.875-2.332c-0.757,0-2.019,0.21-2.019,2.244
	c0,0.968-0.008,1.734,0.293,2.188c0.806,1.209,2.667,2.259,3.651,2.929c2.893,1.962,3.966,2.517,4.61,3.797
	c0.638,1.286,0.958,3.356,0.958,6.212c0,2.077-0.182,3.61-0.54,4.597c-0.36,0.982-1.051,1.808-2.072,2.473
	c-1.022,0.664-3.028,1.002-4.598,1.002c-1.803,0-3.811-0.385-4.862-1.157c-1.052-0.771-1.739-1.75-2.058-2.938
	c-0.326-1.19-0.488-2.884-0.488-5.071v-1.91h5.189v3.532c0,2.124,1.163,2.565,1.977,2.565c0.715,0,2.089-0.35,2.089-2.354
	c0-1.71-0.133-2.85-0.507-3.36c-0.751-1.021-2.732-2.188-4.676-3.435c-1.552-0.996-3.037-2.389-3.809-4.28
	c-0.396-0.975-0.435-2.272-0.435-3.816c0-2.231,0.211-3.87,0.629-4.898c0.418-1.035,1.094-1.838,2.034-2.423
	c0.935-0.584,3.099-0.873,4.427-0.873c1.443,0,3.711,0.32,4.739,0.96c1.019,0.636,1.699,1.439,2.029,2.409
	c0.332,0.97,0.5,2.611,0.5,4.939L26.994,33.493L26.994,33.493L26.994,33.493z"/>
<path fill="#004B91" d="M62.834,24.718v6.785c2.646-1.669,4.783-1.95,5.456-1.95c0.862,0,1.609,0.292,2.24,0.874
	c0.625,0.584,1.024,1.26,1.205,2.03c0.174,0.771,0.269,2.075,0.269,3.915v11.208c0,1.77-0.095,3.045-0.269,3.827
	c-0.181,0.778-0.58,1.468-1.202,2.062c-0.619,0.596-1.342,0.893-2.179,0.893c-1.143,0-2.966-0.486-5.522-2.163v1.741h-5.363V24.716
	h5.365V24.718z M62.834,47.111c0,2.656,1.193,3.048,1.949,3.048c0.875,0,1.857-0.42,1.857-3.056v-11.12
	c0-1.879-1.074-2.224-1.882-2.224c-0.816,0-1.924,0.437-1.924,2.224V47.111L62.834,47.111z"/>
<path fill="#004B91" d="M54.874,30.041V53.94h-5.457l0.095-1.99c-2.439,1.668-4.66,2.411-5.375,2.411
	c-0.81,0-1.484-0.197-2.022-0.577c-0.539-0.385-0.94-0.894-1.199-1.527c-0.26-0.637-0.426-1.3-0.482-1.989
	c-0.062-0.689-0.087-2.063-0.087-4.112V30.041h5.361v16.276c0,3.399,0.813,3.842,1.903,3.842c0.923,0,1.902-0.398,1.902-4.021
	V30.041H54.874L54.874,30.041z"/>
</svg>
