<svg xmlns="http://www.w3.org/2000/svg" width="64" height="64" viewBox="0 0 64 64">
    <path class="sort" d="M92.396 107.55c.177.431.08.925-.25 1.252l-5.642 5.642c-.225.227-.52.336-.813.336-.295 0-.588-.109-.813-.336l-5.638-5.642c-.33-.327-.427-.821-.25-1.252.178-.432.598-.709 1.063-.709h2.294v-29.271c0-.637.515-1.147 1.15-1.147h4.389c.635 0 1.15.515 1.15 1.147v29.271h2.297c.466 0 .885.277 1.063.709zm3.958-24.073h6.933c.331 0 .601-.271.601-.603v-5.304c0-.329-.27-.6-.601-.6h-6.933c-.331 0-.6.271-.6.6v5.304c0 .332.269.603.6.603zm-.552 4.2v5.707c0 .306.247.554.552.554h10.175c.306 0 .553-.248.553-.554v-5.707c0-.305-.247-.553-.553-.553h-10.175c-.305 0-.552.248-.552.553zm.009 10.177v5.969c0 .303.243.546.543.546h14.004c.301 0 .543-.243.543-.546v-5.969c0-.302-.243-.545-.543-.545h-14.004c-.301 0-.543.243-.543.545zm19.379 9.676h-18.836c-.349 0-.63.278-.63.629v5.971c0 .349.282.629.63.629h18.836c.349 0 .63-.28.63-.629v-5.971c0-.346-.281-.629-.63-.629z"/>
</svg>