<?xml version="1.0" encoding="utf-8"?>
<!-- Generator: Adobe Illustrator 15.0.0, SVG Export Plug-In . SVG Version: 6.00 Build 0)  -->
<!DOCTYPE svg PUBLIC "-//W3C//DTD SVG 1.1//EN" "http://www.w3.org/Graphics/SVG/1.1/DTD/svg11.dtd">
<svg version="1.1" id="Layer_1" xmlns="http://www.w3.org/2000/svg" xmlns:xlink="http://www.w3.org/1999/xlink" x="0px" y="0px"
	 width="64px" height="64px" viewBox="0 0 64 64" enable-background="new 0 0 64 64" xml:space="preserve">
<path class="back" fill="#003F87" d="M32.002,0C14.355,0,0,14.355,0,31.999c0,9.436,4.107,17.93,10.628,23.791C16.296,60.892,23.793,64,32.002,64
	c8.87,0,16.905-3.627,22.704-9.477C60.447,48.734,64,40.773,64,31.999C64,14.355,49.646,0,32.002,0L32.002,0z"/>
<path class="front" fill="#FFFFFF" d="M27.035,43.948c0.177,0.431,0.08,0.925-0.25,1.252l-5.643,5.642c-0.225,0.228-0.52,0.337-0.813,0.337
	c-0.295,0-0.588-0.109-0.813-0.337L13.879,45.2c-0.33-0.327-0.427-0.821-0.25-1.252c0.178-0.432,0.598-0.709,1.063-0.709h2.294
	V13.969c0-0.637,0.515-1.147,1.15-1.147h4.39c0.635,0,1.149,0.515,1.149,1.147v29.271h2.297
	C26.438,43.239,26.856,43.517,27.035,43.948z M30.992,19.875h6.934c0.331,0,0.602-0.271,0.602-0.603v-5.304
	c0-0.329-0.271-0.6-0.602-0.6h-6.934c-0.33,0-0.6,0.271-0.6,0.6v5.304C30.393,19.604,30.662,19.875,30.992,19.875z M30.44,24.075
	v5.707c0,0.306,0.247,0.554,0.552,0.554h10.176c0.306,0,0.553-0.248,0.553-0.554v-5.707c0-0.305-0.247-0.553-0.553-0.553H30.992
	C30.688,23.522,30.44,23.771,30.44,24.075z M30.449,34.252v5.97c0,0.303,0.244,0.546,0.543,0.546h14.004
	c0.302,0,0.543-0.243,0.543-0.546v-5.97c0-0.302-0.242-0.545-0.543-0.545H30.992C30.691,33.707,30.449,33.95,30.449,34.252z
	 M49.828,43.929H30.992c-0.349,0-0.629,0.278-0.629,0.629v5.971c0,0.349,0.281,0.629,0.629,0.629h18.836
	c0.35,0,0.631-0.28,0.631-0.629v-5.971C50.459,44.211,50.178,43.929,49.828,43.929z"/>
</svg>
