<?xml version="1.0" encoding="utf-8"?>
<!-- Generator: Adobe Illustrator 15.0.0, SVG Export Plug-In . SVG Version: 6.00 Build 0)  -->
<!DOCTYPE svg PUBLIC "-//W3C//DTD SVG 1.1//EN" "http://www.w3.org/Graphics/SVG/1.1/DTD/svg11.dtd">
<svg version="1.1" id="Layer_1" xmlns="http://www.w3.org/2000/svg" xmlns:xlink="http://www.w3.org/1999/xlink" x="0px" y="0px"
	 width="64px" height="64px" viewBox="0 0 64 64" enable-background="new 0 0 64 64" xml:space="preserve">
<path class="front" fill="#FFFFFF" d="M33.113,18.044H30.82v-3.879h2.293V18.044z M33.113,48.059H30.82v3.881h2.293V48.059z M50.854,34.198v-2.295
	h-3.879v2.295H50.854z M16.958,34.198v-2.295H13.08v2.295H16.958z M16.354,60.46l3.879-4.03c1.35-1.4,1.307-3.63-0.094-4.979
	c-1.402-1.351-3.633-1.308-4.979,0.097l-3.88,4.03c-1.35,1.399-1.307,3.63,0.095,4.979c0.683,0.655,1.563,0.981,2.44,0.981
	C14.738,61.54,15.662,61.177,16.354,60.46z M53.294,60.557c1.399-1.351,1.442-3.578,0.097-4.979l-3.879-4.031
	c-1.349-1.398-3.578-1.441-4.979-0.097c-1.401,1.351-1.444,3.577-0.097,4.979l3.879,4.03c0.69,0.72,1.613,1.08,2.537,1.08
	C51.73,61.54,52.609,61.212,53.294,60.557z M33.254,36.708l7.801-15.621l-3.15-1.571L30.63,34.087l-9.547,4.791l1.579,3.146
	L33.254,36.708z M3.962,6.316c-4.039,3.982-4.855,8.741-2.837,11.75c0,0,2.025,3.907,3.713,2.198
	c1.635-1.66,11.502-11.078,13.057-12.88c1.529-1.77-2.146-3.741-2.146-3.741C12.613,1.635,8,2.334,3.962,6.316z M48.25,3.551
	c0,0-3.675,1.975-2.146,3.742C47.658,9.094,57.525,18.51,59.161,20.17c1.688,1.709,3.713-2.197,3.713-2.197
	c2.021-3.01,1.202-7.766-2.837-11.75C55.997,2.24,51.384,1.541,48.25,3.551z M58.723,32.841c0-14.708-11.97-26.677-26.679-26.677
	c-14.712,0-26.679,11.968-26.679,26.677c0,14.711,11.967,26.683,26.679,26.683C46.753,59.521,58.723,47.552,58.723,32.841z
	 M53.025,32.841c0,11.572-9.414,20.984-20.98,20.984c-11.57,0-20.984-9.414-20.984-20.984c0-11.567,9.414-20.979,20.984-20.979
	C43.611,11.86,53.025,21.272,53.025,32.841z"/>
</svg>
